<svg width="16" height="16" viewBox="0 0 16 16" fill="none" xmlns="http://www.w3.org/2000/svg">
<g clip-path="url(#clip0_420_134)">
<path d="M14.6946 15.579C12.8841 15.579 11.1193 15.1754 9.40027 14.368C7.68069 13.5613 6.15788 12.4946 4.83185 11.168C3.50525 9.84197 2.43858 8.31919 1.63185 6.59961C0.824548 4.88059 0.420898 3.11582 0.420898 1.30529C0.420898 1.05266 0.505109 0.842134 0.67353 0.673713C0.841951 0.505292 1.05248 0.421082 1.30511 0.421082H4.71564C4.91212 0.421082 5.08757 0.484239 5.24195 0.610555C5.39633 0.736871 5.48757 0.898277 5.51564 1.09477L6.063 4.04213C6.09107 4.23862 6.0877 4.41744 6.0529 4.57856C6.01753 4.74024 5.93669 4.88424 5.81037 5.01056L3.76827 7.07371C4.35774 8.08424 5.09823 9.03161 5.98974 9.91582C6.88069 10.8 7.85949 11.5649 8.92616 12.2106L10.9051 10.2316C11.0314 10.1053 11.1965 10.0104 11.4003 9.94698C11.6035 9.88407 11.8034 9.86672 11.9998 9.89477L14.9051 10.4842C15.1016 10.5263 15.263 10.6209 15.3893 10.768C15.5156 10.9156 15.5788 11.0878 15.5788 11.2842V14.6948C15.5788 14.9474 15.4946 15.1579 15.3262 15.3263C15.1577 15.4948 14.9472 15.579 14.6946 15.579ZM2.96827 5.47371L4.35774 4.08424L3.99985 2.10529H2.12616C2.19633 2.68073 2.29458 3.24915 2.4209 3.81056C2.54721 4.37196 2.72967 4.92634 2.96827 5.47371ZM13.8946 13.8527V12L11.9156 11.6L10.5051 13.0106C11.0525 13.2491 11.6105 13.4386 12.1792 13.579C12.7474 13.7194 13.3192 13.8106 13.8946 13.8527Z" fill="#111111"/>
</g>
<defs>
<clipPath id="clip0_420_134">
<rect width="16" height="16" fill="white"/>
</clipPath>
</defs>
</svg>
