<svg width="21" height="20" viewBox="0 0 21 20" fill="none" xmlns="http://www.w3.org/2000/svg">
<path d="M13.6624 4.57422C13.5921 4.63893 13.5357 4.71612 13.4969 4.80137C13.458 4.88663 13.4373 4.97828 13.4361 5.07109C13.4347 5.16389 13.4528 5.25604 13.4892 5.34225C13.5255 5.42846 13.5797 5.50705 13.6483 5.57352L17.4004 9.11551H1.95261C1.85269 9.11329 1.75328 9.12995 1.66027 9.16451C1.56725 9.19907 1.4825 9.25085 1.41098 9.31679C1.33947 9.38272 1.28264 9.4615 1.24384 9.54847C1.20504 9.63545 1.18506 9.72887 1.18506 9.82324C1.18506 9.91761 1.20504 10.011 1.24384 10.098C1.28264 10.185 1.33947 10.2638 1.41098 10.3297C1.4825 10.3956 1.56725 10.4474 1.66027 10.482C1.75328 10.5165 1.85269 10.5332 1.95261 10.531H17.4284L13.6437 14.0994L13.6294 14.1128C13.5608 14.1793 13.5067 14.2579 13.4702 14.3442C13.4338 14.4304 13.4157 14.5226 13.4169 14.6154C13.4182 14.7083 13.4388 14.8 13.4775 14.8853C13.5164 14.9706 13.5726 15.0479 13.6431 15.1127C13.7134 15.1775 13.7968 15.2286 13.8881 15.2631C13.9794 15.2975 14.0771 15.3146 14.1754 15.3134C14.2738 15.3122 14.3709 15.2927 14.4613 15.2561C14.5517 15.2195 14.6335 15.1664 14.7022 15.0999L19.7328 10.3493C19.8732 10.2168 19.9523 10.0373 19.9532 9.8499V9.8187C19.9524 9.63116 19.8733 9.45149 19.7328 9.31885L14.7068 4.57816C14.5676 4.44867 14.3803 4.37574 14.1848 4.37501C13.9894 4.37427 13.8015 4.44577 13.6612 4.57422H13.6624Z" fill="white"/>
</svg>
